<svg width="20" height="26" viewBox="0 0 20 26" fill="none" xmlns="http://www.w3.org/2000/svg">
<path d="M4.53125 0.5C4.36328 0.542969 4.23047 0.671875 4.17969 0.835938C4.12891 1.00391 4.16797 1.18359 4.28125 1.3125L5.75 3.4375C4.08203 4.71875 3 6.74219 3 9V19C3 19.7031 3.44141 20.2031 4 20.5625V23.5C4 24.8672 5.13281 26 6.5 26C7.86719 26 9 24.8672 9 23.5V21H11V23.5C11 24.8672 12.1328 26 13.5 26C14.8672 26 16 24.8672 16 23.5V20.5625C16.5586 20.2031 17 19.7031 17 19V9C17 6.74219 15.918 4.71875 14.25 3.4375L15.7188 1.3125C15.8398 1.16016 15.8633 0.949219 15.7773 0.777344C15.6875 0.601563 15.5078 0.492188 15.3125 0.5C15.2812 0.496094 15.25 0.496094 15.2188 0.5C15.0859 0.535156 14.9727 0.625 14.9062 0.75L13.4062 2.875C12.3984 2.3125 11.2305 2 10 2C8.76953 2 7.60156 2.3125 6.59375 2.875L5.09375 0.75C5.00781 0.601563 4.85547 0.507813 4.6875 0.5C4.65625 0.496094 4.625 0.496094 4.59375 0.5C4.57422 0.5 4.55078 0.5 4.53125 0.5ZM10 4C12.4258 4 14.4414 5.71484 14.9062 8H5.09375C5.55859 5.71484 7.57422 4 10 4ZM8 5C7.44922 5 7 5.44922 7 6C7 6.55078 7.44922 7 8 7C8.55078 7 9 6.55078 9 6C9 5.44922 8.55078 5 8 5ZM12 5C11.4492 5 11 5.44922 11 6C11 6.55078 11.4492 7 12 7C12.5508 7 13 6.55078 13 6C13 5.44922 12.5508 5 12 5ZM0 8V18H2V8H0ZM18 8V18H20V8H18ZM5 10H15V19H14V23.5C14 23.7852 13.7852 24 13.5 24C13.2148 24 13 23.7852 13 23.5V19H7V23.5C7 23.7852 6.78516 24 6.5 24C6.21484 24 6 23.7852 6 23.5V19H5V10Z" fill="white"/>
</svg>
