<svg width="32" height="32" viewBox="0 0 32 32" fill="none" xmlns="http://www.w3.org/2000/svg">
<path d="M27.2733 7.21614C26.8053 7.21614 26.3588 7.27043 25.9321 7.39843C25.5068 7.52643 25.144 7.70779 24.8254 7.95312C24.5067 8.18779 24.2517 8.48418 24.0597 8.82552C23.8677 9.16552 23.7707 9.56114 23.7707 10.0078C23.7707 10.5611 23.9513 11.0815 24.3019 11.5495C24.6526 12.0281 25.2277 12.3914 26.005 12.6354L27.5467 13.1146C28.068 13.2852 28.4302 13.464 28.6222 13.6667C28.8142 13.8693 28.9087 14.1128 28.9087 14.4115C28.9087 14.8475 28.7179 15.1885 28.3566 15.4219C27.9953 15.6565 27.4713 15.7734 26.8019 15.7734C26.3766 15.7734 25.9616 15.7312 25.5363 15.6458C25.1216 15.5605 24.7258 15.4321 24.3644 15.2734C24.2578 15.2308 24.1628 15.188 24.0988 15.1667C24.0348 15.1453 23.9701 15.1354 23.9061 15.1354C23.7461 15.1354 23.6613 15.2409 23.6613 15.4635V16.0078C23.6613 16.1038 23.6837 16.21 23.7264 16.3047C23.7704 16.4047 23.8878 16.5082 24.0571 16.6042C24.3345 16.7642 24.7491 16.9032 25.2811 17.0312C25.8131 17.1592 26.3658 17.224 26.9191 17.224C27.4618 17.224 27.9613 17.1467 28.4399 16.9974C28.8973 16.8587 29.2929 16.6703 29.6222 16.4036C29.9516 16.1476 30.2063 15.8275 30.3983 15.4661C30.5796 15.1048 30.6769 14.6891 30.6769 14.2318C30.6769 13.6784 30.5167 13.1782 30.1873 12.7422C29.858 12.3062 29.303 11.9653 28.5363 11.7213L27.0259 11.2422C26.4619 11.0608 26.0699 10.8589 25.8566 10.6562C25.6433 10.4536 25.5363 10.1997 25.5363 9.90104C25.5363 9.46504 25.707 9.15706 26.0363 8.95572C26.3656 8.75306 26.8463 8.65624 27.453 8.65624C28.209 8.65624 28.8906 8.79691 29.4972 9.07291C29.6786 9.15824 29.8155 9.20052 29.9009 9.20052C30.0609 9.20052 30.1457 9.08204 30.1457 8.85937V8.35677C30.1457 8.20743 30.1133 8.09181 30.0493 8.00781C29.9853 7.91181 29.8796 7.82491 29.7316 7.73958C29.6249 7.67558 29.477 7.61087 29.2863 7.54687C29.0943 7.48287 28.8929 7.43093 28.6795 7.3776C28.4555 7.33493 28.2322 7.29241 27.9868 7.26041C27.7522 7.22841 27.5079 7.21614 27.2733 7.21614ZM5.32536 7.23958C4.74002 7.23958 4.18523 7.30404 3.6639 7.4427C3.14123 7.56937 2.69475 7.72987 2.32275 7.92187C2.17342 7.99654 2.07921 8.06989 2.02588 8.14322C1.97254 8.21789 1.95036 8.34756 1.95036 8.51822V9.03906C1.95036 9.26306 2.02498 9.36718 2.17432 9.36718C2.21698 9.36718 2.27152 9.35727 2.34619 9.33593C2.41952 9.3146 2.54532 9.27258 2.71598 9.19791C3.08798 9.04858 3.47369 8.9332 3.86702 8.83854C4.26036 8.74254 4.64346 8.69791 5.01546 8.69791C5.83546 8.69791 6.40984 8.85816 6.74984 9.18749C7.07917 9.51683 7.24984 10.0813 7.24984 10.8906V11.6693C6.8245 11.5733 6.42054 11.4856 6.02588 11.4323C5.63254 11.379 5.25961 11.349 4.89827 11.349C3.80227 11.349 2.94084 11.6263 2.2915 12.1797C1.6435 12.733 1.32275 13.4658 1.32275 14.3698C1.32275 15.2218 1.58788 15.9021 2.10921 16.4141C2.63054 16.9247 3.34609 17.1823 4.23942 17.1823C5.49542 17.1823 6.53636 16.6909 7.36702 15.7109C7.48436 15.9563 7.59242 16.1598 7.69775 16.3411C7.80442 16.5118 7.93257 16.6811 8.08057 16.8411C8.18723 16.9371 8.29294 16.9896 8.39827 16.9896C8.48361 16.9896 8.58092 16.9572 8.67692 16.8932L9.34619 16.4479C9.48486 16.3412 9.54932 16.2329 9.54932 16.1276C9.54932 16.0529 9.52713 15.9681 9.47379 15.8828C9.32446 15.6055 9.21925 15.3518 9.13525 15.1172C9.06059 14.8825 9.01807 14.5626 9.01807 14.1693H8.99463V10.7187C8.99463 9.54808 8.69848 8.67622 8.11182 8.10156C7.51715 7.52822 6.59202 7.23958 5.32536 7.23958ZM10.2733 7.49479C10.1026 7.49479 10.0181 7.59235 10.0181 7.76302C10.0181 7.83768 10.0504 7.97549 10.1144 8.18749L12.6144 16.4141C12.6784 16.6167 12.753 16.7641 12.8384 16.8281C12.9237 16.9028 13.0514 16.9349 13.242 16.9349H14.1561C14.3481 16.9349 14.4978 16.9028 14.5832 16.8281C14.6685 16.7535 14.733 16.6156 14.7863 16.4036L16.4243 9.54947L18.0728 16.4141C18.1154 16.6274 18.1905 16.7665 18.2759 16.8411C18.3612 16.9158 18.499 16.9479 18.7004 16.9479H19.617C19.7984 16.9479 19.9353 16.9051 20.0207 16.8411C20.106 16.7771 20.1806 16.6365 20.2446 16.4245L22.8097 8.19791C22.8524 8.08058 22.872 7.99629 22.8827 7.93229C22.8933 7.86829 22.9061 7.81374 22.9061 7.76041C22.9061 7.57908 22.8085 7.49479 22.6379 7.49479H21.6483C21.4563 7.49479 21.3195 7.53756 21.2342 7.60156C21.1595 7.66556 21.0847 7.80362 21.0207 8.01562L19.1795 15.1458L17.4972 8.01562C17.4546 7.81295 17.382 7.66556 17.2967 7.60156C17.2114 7.52689 17.071 7.49479 16.8696 7.49479H16.0181C15.8261 7.49479 15.6789 7.53756 15.5936 7.60156C15.5083 7.66556 15.4438 7.80362 15.3905 8.01562L13.7342 15.0625L11.9451 8.01822C11.8811 7.81556 11.8169 7.66556 11.7316 7.60156C11.6569 7.52689 11.5189 7.49479 11.3175 7.49479H10.2733ZM5.29411 12.6146C5.62344 12.6146 5.95411 12.637 6.29411 12.6797C6.63411 12.7223 6.96267 12.7847 7.27067 12.8594V13.3073C7.27067 13.6686 7.2279 13.9771 7.1639 14.2318C7.0999 14.4878 6.97386 14.7114 6.80452 14.9141C6.51652 15.2327 6.17677 15.4657 5.79411 15.5937C5.41144 15.7217 5.04842 15.7865 4.69775 15.7865C4.20842 15.7865 3.83523 15.6586 3.58057 15.3932C3.3139 15.1372 3.18734 14.7656 3.18734 14.2656C3.18734 13.7336 3.3575 13.3297 3.70817 13.0417C4.05884 12.7537 4.58077 12.6146 5.29411 12.6146ZM29.6483 19.1484C28.5281 19.1643 27.2056 19.4145 26.2056 20.1172C25.8976 20.3412 25.9502 20.639 26.2915 20.5963C27.4302 20.4577 29.9438 20.1597 30.3905 20.7344C30.8371 21.2984 29.8887 23.6732 29.4634 24.7266C29.3354 25.0452 29.6142 25.1711 29.9009 24.9271C31.7729 23.3524 32.2601 20.0646 31.8774 19.5859C31.6861 19.3519 30.7684 19.1326 29.6483 19.1484ZM0.234211 19.7838C-0.000226239 19.8128 -0.104935 20.0973 0.143065 20.3203C4.31507 24.0883 9.83925 26.3542 15.9686 26.3542C20.3433 26.3542 25.4282 24.9812 28.9295 22.3958C29.5042 21.9692 29.0044 21.3193 28.4191 21.5859C24.4924 23.2459 20.2263 24.0573 16.341 24.0573C10.5836 24.0573 5.01705 22.4702 0.505045 19.8516C0.406711 19.7929 0.312357 19.7742 0.234211 19.7838Z" fill="white"/>
</svg>
