<svg width="1440" height="168" viewBox="0 0 1440 168" fill="none" xmlns="http://www.w3.org/2000/svg">
<path d="M151.924 110.912C151.924 116.288 152.895 120.843 154.836 124.576C156.777 128.309 159.316 131.371 162.452 133.76C165.737 136 169.545 137.717 173.876 138.912C178.207 139.957 182.687 140.48 187.316 140.48C190.452 140.48 193.812 140.256 197.396 139.808C200.98 139.211 204.34 138.165 207.476 136.672C210.612 135.179 213.225 133.163 215.316 130.624C217.407 127.936 218.452 124.576 218.452 120.544C218.452 116.213 217.033 112.704 214.196 110.016C211.508 107.328 207.924 105.088 203.444 103.296C198.964 101.504 193.887 99.936 188.212 98.592C182.537 97.248 176.788 95.7547 170.964 94.112C164.991 92.6187 159.167 90.8267 153.492 88.736C147.817 86.496 142.74 83.6587 138.26 80.224C133.78 76.7893 130.121 72.5333 127.284 67.456C124.596 62.2293 123.252 55.9573 123.252 48.64C123.252 40.4267 124.969 33.3333 128.404 27.36C131.988 21.2373 136.617 16.16 142.292 12.128C147.967 8.09599 154.388 5.10932 161.556 3.16799C168.724 1.22666 175.892 0.255999 183.06 0.255999C191.423 0.255999 199.412 1.22666 207.028 3.16799C214.793 4.95999 221.663 7.94666 227.636 12.128C233.609 16.3093 238.313 21.6853 241.748 28.256C245.332 34.6773 247.124 42.5173 247.124 51.776H213.076C212.777 46.9973 211.732 43.04 209.94 39.904C208.297 36.768 206.057 34.304 203.22 32.512C200.383 30.72 197.097 29.4507 193.364 28.704C189.78 27.9573 185.823 27.584 181.492 27.584C178.655 27.584 175.817 27.8827 172.98 28.48C170.143 29.0773 167.529 30.1227 165.14 31.616C162.9 33.1093 161.033 34.976 159.54 37.216C158.047 39.456 157.3 42.2933 157.3 45.728C157.3 48.864 157.897 51.4027 159.092 53.344C160.287 55.2853 162.601 57.0773 166.036 58.72C169.62 60.3627 174.473 62.0053 180.596 63.648C186.868 65.2907 195.007 67.3813 205.012 69.92C207.999 70.5173 212.105 71.6373 217.332 73.28C222.708 74.7733 228.009 77.2373 233.236 80.672C238.463 84.1067 242.943 88.736 246.676 94.56C250.559 100.235 252.5 107.552 252.5 116.512C252.5 123.829 251.081 130.624 248.244 136.896C245.407 143.168 241.151 148.619 235.476 153.248C229.951 157.728 223.007 161.237 214.644 163.776C206.431 166.315 196.873 167.584 185.972 167.584C177.161 167.584 168.575 166.464 160.212 164.224C151.999 162.133 144.681 158.773 138.26 154.144C131.988 149.515 126.985 143.616 123.252 136.448C119.519 129.28 117.727 120.768 117.876 110.912H151.924ZM308.593 134.432H339.953C345.03 134.432 349.958 133.611 354.737 131.968C359.515 130.325 363.771 127.637 367.505 123.904C371.238 120.021 374.225 115.019 376.465 108.896C378.705 102.773 379.825 95.3067 379.825 86.496C379.825 78.432 379.003 71.1893 377.361 64.768C375.867 58.1973 373.329 52.5973 369.745 47.968C366.161 43.3387 361.382 39.8293 355.409 37.44C349.585 34.9013 342.342 33.632 333.681 33.632H308.593V134.432ZM273.425 4.06399H342.417C352.721 4.06399 362.278 5.70666 371.089 8.99199C380.049 12.2773 387.739 17.2053 394.161 23.776C400.731 30.3467 405.809 38.56 409.393 48.416C413.126 58.272 414.993 69.8453 414.993 83.136C414.993 94.784 413.499 105.536 410.513 115.392C407.526 125.248 402.971 133.76 396.849 140.928C390.875 148.096 383.334 153.771 374.225 157.952C365.265 161.984 354.662 164 342.417 164H273.425V4.06399ZM478.656 80.224L427.136 4.06399H467.904L499.264 55.136L531.744 4.06399H570.272L518.976 80.448L574.752 164H532.864L497.92 108.672L462.304 164H422.88L478.656 80.224ZM675.616 164H668.608L664.192 147.344H664.096L659.872 164H652.816L644.944 139.184H652.144L656.704 156.032H656.8L660.928 139.184H667.552L671.776 155.984H671.872L676.432 139.184H683.44L675.616 164ZM693.35 135.344H686.534V129.728H693.35V135.344ZM686.534 139.184H693.35V164H686.534V139.184ZM707.357 139.184H712.349V143.744H707.357V156.032C707.357 157.184 707.549 157.952 707.933 158.336C708.317 158.72 709.085 158.912 710.237 158.912C710.621 158.912 710.989 158.896 711.341 158.864C711.693 158.832 712.029 158.784 712.349 158.72V164C711.773 164.096 711.133 164.16 710.429 164.192C709.725 164.224 709.037 164.24 708.365 164.24C707.309 164.24 706.301 164.16 705.341 164C704.413 163.872 703.581 163.6 702.845 163.184C702.141 162.768 701.581 162.176 701.165 161.408C700.749 160.64 700.541 159.632 700.541 158.384V143.744H696.413V139.184H700.541V131.744H707.357V139.184ZM715.592 129.728H722.408V142.64H722.552C723.416 141.2 724.52 140.16 725.864 139.52C727.208 138.848 728.52 138.512 729.8 138.512C731.624 138.512 733.112 138.768 734.264 139.28C735.448 139.76 736.376 140.448 737.048 141.344C737.72 142.208 738.184 143.28 738.44 144.56C738.728 145.808 738.872 147.2 738.872 148.736V164H732.056V149.984C732.056 147.936 731.736 146.416 731.096 145.424C730.456 144.4 729.32 143.888 727.688 143.888C725.832 143.888 724.488 144.448 723.656 145.568C722.824 146.656 722.408 148.464 722.408 150.992V164H715.592V129.728ZM852.127 110.912C852.127 116.288 853.098 120.843 855.039 124.576C856.98 128.309 859.519 131.371 862.655 133.76C865.94 136 869.748 137.717 874.079 138.912C878.41 139.957 882.89 140.48 887.519 140.48C890.655 140.48 894.015 140.256 897.599 139.808C901.183 139.211 904.543 138.165 907.679 136.672C910.815 135.179 913.428 133.163 915.519 130.624C917.61 127.936 918.655 124.576 918.655 120.544C918.655 116.213 917.236 112.704 914.399 110.016C911.711 107.328 908.127 105.088 903.647 103.296C899.167 101.504 894.09 99.936 888.415 98.592C882.74 97.248 876.991 95.7547 871.167 94.112C865.194 92.6187 859.37 90.8267 853.695 88.736C848.02 86.496 842.943 83.6587 838.463 80.224C833.983 76.7893 830.324 72.5333 827.487 67.456C824.799 62.2293 823.455 55.9573 823.455 48.64C823.455 40.4267 825.172 33.3333 828.607 27.36C832.191 21.2373 836.82 16.16 842.495 12.128C848.17 8.09599 854.591 5.10932 861.759 3.16799C868.927 1.22666 876.095 0.255999 883.263 0.255999C891.626 0.255999 899.615 1.22666 907.231 3.16799C914.996 4.95999 921.866 7.94666 927.839 12.128C933.812 16.3093 938.516 21.6853 941.951 28.256C945.535 34.6773 947.327 42.5173 947.327 51.776H913.279C912.98 46.9973 911.935 43.04 910.143 39.904C908.5 36.768 906.26 34.304 903.423 32.512C900.586 30.72 897.3 29.4507 893.567 28.704C889.983 27.9573 886.026 27.584 881.695 27.584C878.858 27.584 876.02 27.8827 873.183 28.48C870.346 29.0773 867.732 30.1227 865.343 31.616C863.103 33.1093 861.236 34.976 859.743 37.216C858.25 39.456 857.503 42.2933 857.503 45.728C857.503 48.864 858.1 51.4027 859.295 53.344C860.49 55.2853 862.804 57.0773 866.239 58.72C869.823 60.3627 874.676 62.0053 880.799 63.648C887.071 65.2907 895.21 67.3813 905.215 69.92C908.202 70.5173 912.308 71.6373 917.535 73.28C922.911 74.7733 928.212 77.2373 933.439 80.672C938.666 84.1067 943.146 88.736 946.879 94.56C950.762 100.235 952.703 107.552 952.703 116.512C952.703 123.829 951.284 130.624 948.447 136.896C945.61 143.168 941.354 148.619 935.679 153.248C930.154 157.728 923.21 161.237 914.847 163.776C906.634 166.315 897.076 167.584 886.175 167.584C877.364 167.584 868.778 166.464 860.415 164.224C852.202 162.133 844.884 158.773 838.463 154.144C832.191 149.515 827.188 143.616 823.455 136.448C819.722 129.28 817.93 120.768 818.079 110.912H852.127ZM973.628 4.06399H1023.13L1060.54 114.048H1060.99L1096.38 4.06399H1145.88V164H1112.96V50.656H1112.51L1073.31 164H1046.2L1007 51.776H1006.56V164H973.628V4.06399ZM1176.85 4.06399H1212.01V65.44H1276.75V4.06399H1311.92V164H1276.75V95.008H1212.01V164H1176.85V4.06399Z" fill="white"/>
</svg>
