<svg width="32" height="32" viewBox="0 0 32 32" fill="none" xmlns="http://www.w3.org/2000/svg">
<path d="M24.3276 2.55999C24.0476 2.55749 23.7976 2.73499 23.7101 3.00249L20.5276 12.8H11.4726L8.29012 3.00249C8.20512 2.74499 7.96762 2.56749 7.69512 2.55999C7.42262 2.55499 7.17762 2.71999 7.08012 2.97499L3.24512 13.21C3.24262 13.21 3.24262 13.2125 3.24012 13.215L1.32012 18.335C1.22012 18.605 1.31012 18.9075 1.54512 19.0775L15.6201 29.3125L15.6226 29.3175C15.6251 29.3175 15.6251 29.3175 15.6251 29.32C15.6326 29.325 15.6426 29.33 15.6501 29.335C15.6601 29.34 15.6676 29.3475 15.6776 29.3525C15.6801 29.3525 15.6801 29.355 15.6826 29.355C15.6826 29.355 15.6851 29.3575 15.6876 29.3575C15.6901 29.36 15.6926 29.3625 15.6976 29.3625C15.7001 29.365 15.7051 29.3675 15.7076 29.37C15.7201 29.375 15.7351 29.3825 15.7501 29.3875C15.7501 29.3875 15.7501 29.3875 15.7501 29.39C15.7651 29.395 15.7801 29.4 15.7926 29.405C15.7951 29.405 15.7951 29.405 15.7976 29.4075C15.8076 29.41 15.8176 29.4125 15.8301 29.4175C15.8351 29.4175 15.8401 29.42 15.8476 29.42C15.8476 29.4225 15.8476 29.4225 15.8476 29.42C15.8601 29.425 15.8726 29.4275 15.8851 29.43C15.9026 29.4325 15.9176 29.435 15.9351 29.4375C15.9601 29.4375 15.9876 29.44 16.0126 29.44C16.0376 29.4375 16.0601 29.4375 16.0826 29.4325C16.0926 29.4325 16.1001 29.4325 16.1101 29.43C16.1101 29.43 16.1126 29.43 16.1151 29.43C16.1201 29.4275 16.1226 29.4275 16.1276 29.4275C16.1301 29.4275 16.1326 29.425 16.1376 29.425C16.1426 29.4225 16.1501 29.4225 16.1551 29.42C16.1651 29.4175 16.1726 29.415 16.1801 29.4125C16.1851 29.4125 16.1876 29.4125 16.1901 29.41C16.1926 29.41 16.1951 29.41 16.1976 29.41C16.2076 29.405 16.2201 29.4 16.2301 29.3975C16.2426 29.3925 16.2526 29.3875 16.2626 29.3825C16.2651 29.3825 16.2651 29.3825 16.2676 29.38C16.2701 29.38 16.2726 29.38 16.2751 29.3775C16.2801 29.375 16.2851 29.3725 16.2901 29.37C16.3051 29.3625 16.3176 29.355 16.3301 29.3475C16.3351 29.345 16.3376 29.3425 16.3401 29.34C16.3426 29.34 16.3451 29.3375 16.3476 29.3375C16.3576 29.33 16.3676 29.325 16.3776 29.3175L16.3826 29.31L30.4576 19.0775C30.6901 18.9075 30.7801 18.605 30.6801 18.335L28.7651 13.2325C28.7626 13.2275 28.7601 13.22 28.7601 13.215L24.9201 2.97499C24.8251 2.72749 24.5926 2.56249 24.3276 2.55999ZM7.63762 5.13749L10.1276 12.8H4.76512L7.63762 5.13749ZM24.3626 5.13749L27.2376 12.8H21.8726L24.3626 5.13749ZM5.16262 14.08H10.5426L14.2901 25.61L5.16262 14.08ZM11.8901 14.08H20.1101L16.0001 26.73L11.8901 14.08ZM21.4576 14.08H26.8376L17.7101 25.61L21.4576 14.08ZM4.04012 14.725L12.6001 25.5375L2.69012 18.33L4.04012 14.725ZM27.9601 14.725L29.3101 18.33L19.4001 25.5375L27.9601 14.725Z" fill="white"/>
</svg>
