<svg width="23" height="30" viewBox="0 0 23 30" fill="none" xmlns="http://www.w3.org/2000/svg">
<path d="M11.5001 0.279997C11.4789 0.27977 11.4576 0.280605 11.4364 0.282497C9.1227 0.293467 7.41709 0.879734 6.29015 1.48125C5.38129 1.96636 5.09733 2.30453 4.9089 2.49375C4.56264 2.35645 4.22134 2.2 3.82015 2.2C2.06046 2.2 0.620147 3.64031 0.620147 5.4C0.620147 6.69777 1.4219 7.77977 2.54015 8.27875V14.2825L0.901397 15.9212C0.526357 16.2963 0.526357 16.9037 0.901397 17.2787C1.08892 17.4663 1.33439 17.56 1.58015 17.56C1.82591 17.56 2.07138 17.4663 2.2589 17.2787L2.37015 17.1675C2.3249 17.4581 2.28292 17.7466 2.23015 18.05C2.06854 18.9792 1.90015 20.0844 1.90015 22.04C1.90015 23.856 2.7631 25.7395 4.35515 27.1875L3.4614 28.0812C3.08636 28.4563 3.08636 29.0637 3.4614 29.4387C3.64892 29.6263 3.89439 29.72 4.14015 29.72C4.38591 29.72 4.63202 29.6263 4.8189 29.4387L5.9314 28.3263C7.41086 29.1742 9.26198 29.7083 11.4439 29.7175C11.4476 29.7179 11.4514 29.7184 11.4551 29.7188C11.4705 29.7188 11.4848 29.72 11.5001 29.72C11.5218 29.7203 11.5435 29.7194 11.5651 29.7175C13.7432 29.7069 15.5914 29.1731 17.0689 28.3263L18.1814 29.4387C18.3683 29.6263 18.6144 29.72 18.8601 29.72C19.1059 29.72 19.3514 29.6263 19.5389 29.4387C19.9139 29.0637 19.9139 28.4563 19.5389 28.0812L18.6439 27.1862C20.2353 25.7384 21.1001 23.8556 21.1001 22.04C21.1001 20.0844 20.9318 18.9792 20.7701 18.05C20.7174 17.7466 20.6754 17.4581 20.6301 17.1675L20.7414 17.2787C20.9289 17.4663 21.1744 17.56 21.4201 17.56C21.6659 17.56 21.9114 17.4663 22.0989 17.2787C22.4739 16.9037 22.4739 16.2963 22.0989 15.9212L20.4601 14.2825V8.27875C21.5784 7.77977 22.3801 6.69777 22.3801 5.4C22.3801 3.64031 20.9398 2.2 19.1801 2.2C18.779 2.2 18.4377 2.35645 18.0914 2.49375C17.903 2.30453 17.619 1.96636 16.7101 1.48125C15.5801 0.87806 13.8687 0.28902 11.5451 0.281247C11.5302 0.280303 11.5152 0.279886 11.5001 0.279997ZM11.5001 1.56C13.6329 1.56 15.1361 2.09144 16.1076 2.61C17.0792 3.12856 17.4776 3.59375 17.4776 3.59375C17.5749 3.70441 17.7073 3.77815 17.8526 3.80251C17.9979 3.82688 18.1471 3.80038 18.2751 3.7275C18.5518 3.56985 18.8524 3.48 19.1801 3.48C20.248 3.48 21.1001 4.33217 21.1001 5.4C21.1001 6.29929 20.4877 7.04014 19.6601 7.25375C19.5229 7.28919 19.4014 7.36917 19.3145 7.48115C19.2276 7.59313 19.1804 7.73077 19.1801 7.8725V15C19.1801 16.4877 19.3518 17.3593 19.5101 18.27C19.6685 19.1807 19.8201 20.1556 19.8201 22.04C19.8201 24.9023 16.9815 28.44 11.5001 28.44C6.01876 28.44 3.18015 24.9023 3.18015 22.04C3.18015 20.1556 3.33176 19.1807 3.49015 18.27C3.64854 17.3593 3.82015 16.4877 3.82015 15V7.8725C3.81993 7.73077 3.77268 7.59313 3.68581 7.48115C3.59895 7.36917 3.47737 7.28919 3.34015 7.25375C2.51259 7.04014 1.90015 6.29929 1.90015 5.4C1.90015 4.33217 2.75232 3.48 3.82015 3.48C4.14787 3.48 4.44853 3.56985 4.72515 3.7275C4.85317 3.80038 5.00241 3.82688 5.14769 3.80251C5.29298 3.77815 5.42541 3.70441 5.52265 3.59375C5.52265 3.59375 5.92112 3.12856 6.89265 2.61C7.86417 2.09144 9.36736 1.56 11.5001 1.56ZM7.98015 4.12C6.39715 4.12 5.10015 5.417 5.10015 7C5.10015 8.583 6.39715 9.88 7.98015 9.88C9.56315 9.88 10.8601 8.583 10.8601 7C10.8601 5.417 9.56315 4.12 7.98015 4.12ZM15.0189 4.12125C13.4363 4.12125 12.1401 5.41735 12.1401 7C12.1401 8.58264 13.4363 9.87875 15.0189 9.87875C16.6015 9.87875 17.8989 8.58264 17.8989 7C17.8989 5.41735 16.6015 4.12125 15.0189 4.12125ZM3.82015 4.76C3.46687 4.76 3.18015 5.04672 3.18015 5.4C3.18015 5.75328 3.46687 6.04 3.82015 6.04C3.86367 6.04 3.90169 6.02332 3.94265 6.015C4.02841 5.66492 4.15433 5.32976 4.32265 5.02C4.20553 4.86576 4.02879 4.76 3.82015 4.76ZM19.1801 4.76C18.9715 4.76 18.7948 4.86576 18.6776 5.02C18.846 5.32976 18.9719 5.66492 19.0576 6.015C19.0986 6.02332 19.1366 6.04 19.1801 6.04C19.5334 6.04 19.8201 5.75328 19.8201 5.4C19.8201 5.04672 19.5334 4.76 19.1801 4.76ZM7.98015 5.4C8.87138 5.4 9.58015 6.10876 9.58015 7C9.58015 7.89123 8.87138 8.6 7.98015 8.6C7.45252 8.6 6.99316 8.34762 6.70265 7.96C6.95682 7.95934 7.20036 7.8579 7.37985 7.67794C7.55935 7.49797 7.66015 7.25417 7.66015 7C7.66015 6.74582 7.55935 6.50202 7.37985 6.32206C7.20036 6.14209 6.95682 6.04066 6.70265 6.04C6.99316 5.65238 7.45252 5.4 7.98015 5.4ZM15.0189 5.40125C15.9098 5.40125 16.6189 6.10912 16.6189 7C16.6189 7.89088 15.9098 8.59875 15.0189 8.59875C14.4916 8.59875 14.0329 8.34719 13.7426 7.96C13.9968 7.95934 14.2404 7.8579 14.4199 7.67794C14.5993 7.49797 14.7001 7.25417 14.7001 7C14.7001 6.74582 14.5993 6.50202 14.4199 6.32206C14.2404 6.14209 13.9968 6.04066 13.7426 6.04C14.0329 5.6528 14.4916 5.40125 15.0189 5.40125ZM11.5001 9.24C11.0601 9.24014 10.6335 9.34103 10.2917 9.5258C9.94995 9.71057 9.71375 9.968 9.62265 10.255C9.42954 10.3741 9.24655 10.5086 9.08765 10.6675C8.62708 11.1281 8.30015 11.7467 8.30015 12.44C8.30015 12.6 8.33704 13.2421 8.8389 13.6812C9.15351 13.9565 9.60686 14.1427 10.2201 14.2512V15C10.2189 15.0848 10.2346 15.169 10.2662 15.2477C10.2979 15.3264 10.3448 15.398 10.4044 15.4584C10.4639 15.5188 10.5349 15.5668 10.6131 15.5995C10.6914 15.6323 10.7753 15.6491 10.8601 15.6491C10.945 15.6491 11.0289 15.6323 11.1072 15.5995C11.1854 15.5668 11.2564 15.5188 11.3159 15.4584C11.3755 15.398 11.4224 15.3264 11.4541 15.2477C11.4857 15.169 11.5013 15.0848 11.5001 15C11.4989 15.0848 11.5146 15.169 11.5462 15.2477C11.5779 15.3264 11.6248 15.398 11.6844 15.4584C11.7439 15.5188 11.8149 15.5668 11.8931 15.5995C11.9714 15.6323 12.0553 15.6491 12.1401 15.6491C12.225 15.6491 12.3089 15.6323 12.3872 15.5995C12.4654 15.5668 12.5364 15.5188 12.5959 15.4584C12.6555 15.398 12.7024 15.3264 12.7341 15.2477C12.7657 15.169 12.7813 15.0848 12.7801 15V14.2512C13.3934 14.1427 13.8468 13.9565 14.1614 13.6812C14.6633 13.2421 14.7001 12.6 14.7001 12.44C14.7001 11.7467 14.3732 11.1281 13.9126 10.6675C13.7535 10.5083 13.5699 10.3743 13.3764 10.255C13.2853 9.96814 13.0493 9.71082 12.7078 9.52606C12.3663 9.34131 11.94 9.24033 11.5001 9.24ZM10.1589 11.4337C10.517 11.668 10.9985 11.7994 11.5001 11.8C12.002 11.8 12.4839 11.669 12.8426 11.435C12.8993 11.4777 12.9562 11.521 13.0076 11.5725C13.2671 11.8319 13.4201 12.1733 13.4201 12.44C13.4201 12.6 13.457 12.5979 13.3189 12.7187C13.1808 12.8396 12.7001 13.08 11.5001 13.08C10.3001 13.08 9.81954 12.8396 9.6814 12.7187C9.54326 12.5979 9.58015 12.6 9.58015 12.44C9.58015 12.1733 9.73321 11.8319 9.99265 11.5725C10.0445 11.5206 10.1017 11.4768 10.1589 11.4337Z" fill="white"/>
</svg>
