<svg width="30" height="30" viewBox="0 0 30 30" fill="none" xmlns="http://www.w3.org/2000/svg">
<path d="M8.59992 0.919998C4.36602 0.919998 0.919922 4.3661 0.919922 8.6V21.4C0.919922 25.6339 4.36602 29.08 8.59992 29.08H21.3999C25.6338 29.08 29.0799 25.6339 29.0799 21.4V8.6C29.0799 4.3661 25.6338 0.919998 21.3999 0.919998H8.59992ZM8.59992 2.2H21.3999C24.942 2.2 27.7999 5.0579 27.7999 8.6V21.4C27.7999 24.9421 24.942 27.8 21.3999 27.8H8.59992C5.05782 27.8 2.19992 24.9421 2.19992 21.4V8.6C2.19992 5.0579 5.05782 2.2 8.59992 2.2ZM6.43367 10.5625C5.98375 10.5625 5.65242 10.8832 5.65242 11.305C5.65242 11.721 5.98375 12.0412 6.43367 12.0412C6.88359 12.0412 7.21617 11.721 7.21617 11.305C7.21617 10.8832 6.88359 10.5625 6.43367 10.5625ZM13.1037 10.9275C10.7747 10.9275 9.31242 12.5586 9.31242 15.18C9.31242 17.7957 10.7466 19.4375 13.1037 19.4375C15.455 19.4375 16.8837 17.7899 16.8837 15.18C16.8837 12.5643 15.4435 10.9281 13.1037 10.9275ZM21.3787 10.9275C19.6072 10.9275 18.4249 11.8892 18.4249 13.335C18.4249 14.5273 19.0943 15.237 20.5624 15.58L21.6087 15.8337C22.6832 16.0865 23.1562 16.4574 23.1562 17.0763C23.1562 17.7962 22.4137 18.3187 21.4012 18.3187C20.3163 18.3187 19.5624 17.8298 19.4549 17.06H18.2049C18.2952 18.5115 19.504 19.4387 21.3037 19.4387C23.2275 19.4387 24.4312 18.4664 24.4312 16.9137C24.4312 15.6933 23.7452 15.0178 22.0799 14.63L21.1862 14.41C20.1289 14.1623 19.7012 13.8304 19.7012 13.2512C19.7012 12.5197 20.3653 12.0425 21.3612 12.0425C22.3065 12.0425 22.9578 12.5081 23.0762 13.2562H24.3024C24.2295 11.8892 23.0267 10.9275 21.3787 10.9275ZM13.1037 12.1025C14.6454 12.1025 15.5962 13.2958 15.5962 15.18C15.5962 17.0526 14.6448 18.2625 13.1037 18.2625C11.5459 18.2625 10.6012 17.0533 10.6012 15.18C10.6012 13.2958 11.5734 12.1031 13.1037 12.1025ZM5.83242 13.1162V19.2412H7.03617V13.1162H5.83242Z" fill="white"/>
</svg>
