<svg width="24" height="26" viewBox="0 0 24 26" fill="none" xmlns="http://www.w3.org/2000/svg">
<path d="M11.9941 0C11.6291 0 11.2642 0.0895313 10.9492 0.269531L1.03906 5.99023C0.399063 6.36023 0 7.06078 0 7.80078V18.1797C0 18.9297 0.399063 19.6202 1.03906 19.9902L3.64062 21.4902C4.90063 22.1102 5.34992 22.1094 5.91992 22.1094C7.78992 22.1094 8.85938 20.9795 8.85938 19.0195V8.31055C8.85938 8.15055 8.73031 8.01953 8.57031 8.01953H7.32031C7.15031 8.01953 7.0293 8.15055 7.0293 8.31055V19.0098C7.0293 19.8898 6.12039 20.7495 4.65039 20.0195L1.92969 18.4492C1.82969 18.3992 1.76953 18.2897 1.76953 18.1797V7.81055C1.76953 7.69055 1.82969 7.5893 1.92969 7.5293L11.8398 1.81055C11.9298 1.75055 12.0504 1.75055 12.1504 1.81055L22.0605 7.5293C22.1605 7.5893 22.2207 7.69078 22.2207 7.80078V18.1797C22.2207 18.2897 22.1603 18.3992 22.0703 18.4492L12.1504 24.1797C12.0604 24.2297 11.9298 24.2297 11.8398 24.1797L9.28906 22.6699C9.21906 22.6199 9.12078 22.6104 9.05078 22.6504C8.34078 23.0504 8.21078 23.1001 7.55078 23.3301C7.39078 23.3801 7.14062 23.4798 7.64062 23.7598L10.9492 25.7207C11.2692 25.9007 11.6302 26 11.9902 26C12.3602 26 12.7191 25.9007 13.0391 25.7207L22.9609 19.9902C23.6009 19.6202 24 18.9297 24 18.1797V7.81055C24 7.06055 23.6009 6.37 22.9609 6L13.0391 0.269531C12.7241 0.0895313 12.3591 0 11.9941 0ZM14.6602 8.00586C11.8302 8.00586 10.1406 9.20508 10.1406 11.2051C10.1406 13.3751 11.8191 13.9741 14.5391 14.2441C17.7891 14.5641 18.0391 15.0455 18.0391 15.6855C18.0391 16.7855 17.1505 17.2559 15.0605 17.2559C12.4305 17.2559 11.8502 16.5949 11.6602 15.2949C11.6402 15.1549 11.5209 15.0547 11.3809 15.0547H10.0898C9.92984 15.0547 9.81055 15.1859 9.81055 15.3359C9.81055 17.0059 10.7205 18.9941 15.0605 18.9941C18.2005 18.9941 20 17.7557 20 15.5957C20 13.4557 18.5498 12.8846 15.5098 12.4746C12.4198 12.0746 12.1094 11.8645 12.1094 11.1445C12.1094 10.5445 12.3802 9.75586 14.6602 9.75586C16.6902 9.75586 17.4498 10.1945 17.7598 11.5645C17.7898 11.6945 17.8991 11.7949 18.0391 11.7949H19.3301C19.4101 11.7949 19.4791 11.7553 19.5391 11.6953C19.5891 11.6453 19.6194 11.5646 19.6094 11.4746C19.4094 9.11461 17.8402 8.00586 14.6602 8.00586Z" fill="white"/>
</svg>
