<svg width="32" height="32" viewBox="0 0 32 32" fill="none" xmlns="http://www.w3.org/2000/svg">
<path d="M22.1152 2.55C21.6162 2.53323 21.0939 2.62022 20.5702 2.79C19.5228 3.12957 18.4253 3.79129 17.2989 4.7075C16.8575 5.06657 16.4121 5.47701 15.9652 5.9125C15.5281 5.48807 15.0918 5.08739 14.6602 4.73625C13.5347 3.82078 12.4402 3.16005 11.3952 2.82125C10.3502 2.48246 9.3104 2.47196 8.45643 2.965C7.60245 3.45805 7.09177 4.36311 6.86268 5.4375C6.63358 6.5119 6.65757 7.79136 6.88768 9.22375C6.9676 9.72129 7.08285 10.2433 7.21268 10.775C6.72472 10.9229 6.25085 11.0784 5.81143 11.25C4.48528 11.768 3.38798 12.3876 2.58893 13.125C1.78987 13.8624 1.27393 14.7573 1.27393 15.74C1.27393 16.7227 1.78987 17.6164 2.58893 18.3538C3.38798 19.0911 4.48528 19.712 5.81143 20.23C6.2813 20.4135 6.79001 20.5788 7.31518 20.735C7.12628 21.4408 6.97323 22.1257 6.86893 22.775C6.63863 24.2085 6.61431 25.4882 6.84393 26.565C7.07354 27.6418 7.58448 28.552 8.44268 29.0475C9.30087 29.543 10.3453 29.5308 11.3927 29.1913C12.44 28.8517 13.5363 28.1912 14.6627 27.275C15.1 26.9192 15.5424 26.5134 15.9852 26.0825C16.43 26.5158 16.8746 26.9239 17.3139 27.2813C18.4394 28.1967 19.5352 28.8575 20.5802 29.1963C21.6252 29.535 22.6637 29.5455 23.5177 29.0525C24.3716 28.5595 24.8823 27.6544 25.1114 26.58C25.3405 25.5056 25.3153 24.2261 25.0852 22.7938C24.9806 22.1427 24.8274 21.4568 24.6377 20.7488C25.1802 20.5887 25.705 20.419 26.1889 20.23C27.5151 19.712 28.6124 19.0911 29.4114 18.3538C30.2105 17.6164 30.7264 16.7227 30.7264 15.74C30.7264 14.7573 30.2105 13.8624 29.4114 13.125C28.6124 12.3876 27.5151 11.768 26.1889 11.25C25.7432 11.0759 25.2621 10.9184 24.7664 10.7688C24.8973 10.2337 25.0135 9.70804 25.0939 9.2075C25.3242 7.77396 25.3485 6.49309 25.1189 5.41625C24.8893 4.33942 24.3771 3.43048 23.5189 2.935C23.0898 2.68727 22.6142 2.56678 22.1152 2.55ZM22.0564 3.8525C22.3696 3.86107 22.6367 3.93558 22.8652 4.0675C23.3222 4.33135 23.66 4.84486 23.8402 5.69C24.0204 6.53514 24.0142 7.67702 23.8014 9.00125C23.7286 9.45465 23.6228 9.93517 23.5027 10.4275C22.1939 10.1125 20.7598 9.87868 19.2314 9.74125C18.4636 8.67742 17.6744 7.70968 16.8789 6.85C17.2995 6.43947 17.7173 6.05551 18.1252 5.72375C19.1656 4.8774 20.1507 4.30151 20.9727 4.035C21.3837 3.90175 21.7433 3.84394 22.0564 3.8525ZM9.91143 3.85625C10.2264 3.84746 10.5867 3.90512 10.9989 4.03875C11.8233 4.30603 12.8101 4.88167 13.8514 5.72875C14.251 6.05377 14.6597 6.42936 15.0714 6.83C14.2702 7.6965 13.4755 8.67438 12.7027 9.7475C11.1797 9.88746 9.75074 10.1235 8.44768 10.44C8.32829 9.95002 8.22395 9.47143 8.15143 9.02C7.93851 7.69462 7.93319 6.55133 8.11393 5.70375C8.29466 4.85618 8.63521 4.34004 9.09643 4.07375C9.32703 3.94061 9.59649 3.86505 9.91143 3.85625ZM15.9852 7.77125C16.5065 8.33855 17.0281 8.95956 17.5452 9.6275C17.037 9.60632 16.5226 9.59375 16.0002 9.59375C15.4673 9.59375 14.9432 9.60672 14.4252 9.62875C14.9425 8.9602 15.4637 8.33904 15.9852 7.77125ZM16.0002 10.8863C16.8705 10.8863 17.7188 10.922 18.5439 10.9825C19.1117 11.798 19.6665 12.6631 20.1952 13.5788C20.6597 14.3833 21.0801 15.1867 21.4627 15.98C21.076 16.7839 20.6486 17.5981 20.1777 18.4138C19.7631 19.1318 19.3302 19.8137 18.8902 20.4713C17.9581 20.5492 16.9924 20.5925 16.0002 20.5925C14.9841 20.5925 13.9966 20.5466 13.0439 20.465C12.6112 19.8169 12.1856 19.1441 11.7777 18.4375C11.3078 17.6237 10.8825 16.8122 10.4964 16.01C10.8841 15.2033 11.3113 14.386 11.7839 13.5675C12.3098 12.6566 12.863 11.7965 13.4277 10.985C14.2617 10.9232 15.1198 10.8863 16.0002 10.8863ZM20.1927 11.1425C21.2472 11.2741 22.2374 11.457 23.1589 11.6763C22.8854 12.573 22.5484 13.5096 22.1402 14.4763C21.8751 13.9653 21.6006 13.4525 21.3039 12.9388C20.9446 12.3165 20.5711 11.7222 20.1927 11.1425ZM11.7402 11.1525C11.3696 11.7217 11.0049 12.3037 10.6527 12.9138C10.3522 13.4341 10.072 13.9538 9.80393 14.4713C9.39919 13.5105 9.06427 12.5791 8.79268 11.6875C9.7077 11.4678 10.6925 11.2856 11.7402 11.1525ZM24.4252 12.0163C24.8789 12.1535 25.317 12.2968 25.7189 12.4538C26.9414 12.9312 27.9084 13.4966 28.5352 14.075C29.1619 14.6534 29.4339 15.2049 29.4339 15.74C29.4339 16.2751 29.1619 16.8266 28.5352 17.405C27.9084 17.9834 26.9414 18.5488 25.7189 19.0263C25.2723 19.2007 24.7816 19.3589 24.2714 19.5088C23.9075 18.3831 23.443 17.2088 22.8902 16.01C23.5258 14.6337 24.0393 13.2917 24.4252 12.0163ZM7.55393 12.0225C7.9354 13.2852 8.44232 14.6139 9.06893 15.9763C8.51248 17.1821 8.04567 18.363 7.68018 19.495C7.18799 19.3491 6.71391 19.1952 6.28143 19.0263C5.05893 18.5488 4.09192 17.9834 3.46518 17.405C2.83843 16.8266 2.56643 16.2751 2.56643 15.74C2.56643 15.2049 2.83843 14.6534 3.46518 14.075C4.09192 13.4966 5.05893 12.9312 6.28143 12.4538C6.67715 12.2992 7.10796 12.158 7.55393 12.0225ZM16.0002 12.8C14.2404 12.8 12.8002 14.2403 12.8002 16C12.8002 17.7597 14.2404 19.2 16.0002 19.2C17.7599 19.2 19.2002 17.7597 19.2002 16C19.2002 14.2403 17.7599 12.8 16.0002 12.8ZM16.0002 14.08C17.0681 14.08 17.9202 14.932 17.9202 16C17.9202 17.068 17.0681 17.92 16.0002 17.92C14.9322 17.92 14.0802 17.068 14.0802 16C14.0802 14.932 14.9322 14.08 16.0002 14.08ZM22.1564 17.5125C22.4921 18.3069 22.7838 19.0842 23.0289 19.8338C22.2593 20.0122 21.4397 20.1626 20.5777 20.2813C20.8258 19.8853 21.0709 19.482 21.3102 19.0675C21.6101 18.548 21.8887 18.0291 22.1564 17.5125ZM9.81893 17.5138C10.0881 18.0336 10.3684 18.5547 10.6702 19.0775C10.9065 19.4868 11.1477 19.8863 11.3927 20.2775C10.5332 20.1583 9.71616 20.0074 8.94893 19.8288C9.19291 19.0815 9.48481 18.3058 9.81893 17.5138ZM8.58018 21.0713C9.73846 21.3456 10.9939 21.5564 12.3252 21.6938C13.214 22.9794 14.1395 24.1339 15.0714 25.1438C14.6548 25.55 14.2418 25.9313 13.8377 26.26C12.7972 27.1064 11.8109 27.681 10.9889 27.9475C10.1669 28.214 9.55342 28.1788 9.09643 27.915C8.63943 27.6512 8.30289 27.1376 8.12268 26.2925C7.94246 25.4474 7.94744 24.3067 8.16018 22.9825C8.25668 22.3818 8.40091 21.7385 8.58018 21.0713ZM23.3989 21.0763C23.5796 21.7472 23.7244 22.3935 23.8214 22.9975C24.0343 24.3229 24.0397 25.4649 23.8589 26.3125C23.6782 27.1601 23.3389 27.6775 22.8777 27.9438C22.4165 28.21 21.7983 28.246 20.9739 27.9788C20.1495 27.7115 19.1628 27.1346 18.1214 26.2875C17.7144 25.9564 17.2986 25.5733 16.8789 25.1638C17.8169 24.1501 18.7493 22.9893 19.6439 21.6963C20.9785 21.5598 22.2375 21.3503 23.3989 21.0763ZM13.9952 21.825C14.6523 21.8608 15.3181 21.885 16.0002 21.885C16.6597 21.885 17.3039 21.8623 17.9402 21.8288C17.2898 22.7063 16.6268 23.5041 15.9664 24.2225C15.3065 23.5026 14.6447 22.7033 13.9952 21.825Z" fill="white"/>
</svg>
