<svg width="48" height="48" viewBox="0 0 48 48" fill="none" xmlns="http://www.w3.org/2000/svg">
<path d="M35.8358 23.706L34.8286 23.082C34.8201 22.9841 34.8106 22.8864 34.8001 22.7887L35.6656 21.981C35.7092 21.941 35.7418 21.8904 35.7603 21.8341C35.7787 21.7778 35.7823 21.7177 35.7708 21.6596C35.7592 21.6015 35.7329 21.5474 35.6944 21.5024C35.6559 21.4574 35.6065 21.4231 35.5508 21.4027L34.4438 20.9887C34.4162 20.8932 34.3875 20.7979 34.3576 20.703L35.0476 19.7437C35.0823 19.6959 35.1041 19.6399 35.1111 19.5812C35.118 19.5225 35.1098 19.463 35.0873 19.4083C35.0647 19.3537 35.0285 19.3057 34.9822 19.269C34.9359 19.2322 34.8809 19.208 34.8226 19.1985L33.6548 19.0087C33.6098 18.9202 33.5626 18.8332 33.5146 18.7462L34.0051 17.67C34.0301 17.6163 34.0409 17.557 34.0364 17.4979C34.0319 17.4387 34.0122 17.3818 33.9793 17.3325C33.9463 17.2832 33.9012 17.2432 33.8484 17.2164C33.7955 17.1896 33.7366 17.1769 33.6773 17.1795L32.4931 17.2207C32.4318 17.1443 32.3693 17.0688 32.3056 16.9942L32.5778 15.84C32.5917 15.7825 32.5905 15.7223 32.5744 15.6654C32.5584 15.6084 32.528 15.5565 32.4861 15.5147C32.4443 15.4728 32.3924 15.4424 32.3355 15.4264C32.2785 15.4103 32.2184 15.4092 32.1608 15.423L31.0073 15.6945C30.9323 15.6315 30.8573 15.5692 30.7801 15.507L30.8213 14.3235C30.8239 14.2643 30.8112 14.2054 30.7844 14.1525C30.7576 14.0996 30.7176 14.0545 30.6683 14.0216C30.619 13.9886 30.5621 13.9689 30.503 13.9644C30.4438 13.9599 30.3846 13.9707 30.3308 13.9957L29.2546 14.4862C29.1676 14.4382 29.0801 14.3912 28.9921 14.3452L28.8023 13.1782C28.7929 13.1199 28.7687 13.065 28.7321 13.0187C28.6954 12.9724 28.6476 12.9362 28.593 12.9136C28.5385 12.891 28.479 12.8827 28.4204 12.8895C28.3617 12.8963 28.3058 12.918 28.2578 12.9525L27.2978 13.6425C27.2032 13.6124 27.1082 13.5837 27.0128 13.5562L26.5988 12.4492C26.5784 12.3937 26.5441 12.3443 26.4991 12.3059C26.4542 12.2674 26.4001 12.2411 26.3421 12.2295C26.284 12.2179 26.224 12.2214 26.1677 12.2397C26.1114 12.2579 26.0608 12.2903 26.0206 12.3337L25.2128 13.2007C25.1153 13.1902 25.0178 13.1797 24.9196 13.1722L24.2956 12.1642C24.2645 12.114 24.2212 12.0725 24.1696 12.0438C24.118 12.015 24.0599 11.9999 24.0008 11.9999C23.9418 11.9999 23.8837 12.015 23.8321 12.0438C23.7805 12.0725 23.7371 12.114 23.7061 12.1642L23.0821 13.1722C22.9846 13.1797 22.8863 13.1902 22.7888 13.2007L21.9811 12.3345C21.9407 12.2916 21.89 12.2598 21.8339 12.2418C21.7778 12.2239 21.718 12.2205 21.6602 12.232C21.6024 12.2434 21.5485 12.2694 21.5035 12.3074C21.4585 12.3454 21.4238 12.3942 21.4028 12.4492L20.9888 13.5562C20.8928 13.584 20.7976 13.6132 20.7038 13.6432L19.7438 12.9525C19.6961 12.9174 19.6401 12.8952 19.5812 12.888C19.5224 12.8808 19.4627 12.8889 19.4079 12.9116C19.3531 12.9342 19.305 12.9705 19.2684 13.0171C19.2317 13.0637 19.2077 13.1189 19.1986 13.1775L19.0081 14.3452C18.9203 14.391 18.8333 14.4382 18.7456 14.4862L17.6701 13.9957C17.6164 13.9707 17.5572 13.9599 17.4981 13.9644C17.4391 13.9689 17.3822 13.9885 17.3329 14.0214C17.2836 14.0542 17.2436 14.0992 17.2168 14.152C17.1899 14.2048 17.1771 14.2636 17.1796 14.3227L17.2208 15.5077C17.1443 15.5692 17.0686 15.6315 16.9936 15.6952L15.8401 15.423C15.7826 15.4097 15.7226 15.4112 15.6659 15.4274C15.6091 15.4436 15.5574 15.474 15.5156 15.5157C15.4739 15.5574 15.4434 15.6091 15.427 15.6658C15.4107 15.7225 15.4091 15.7825 15.4223 15.84L15.6946 16.9942C15.6308 17.0692 15.5686 17.1442 15.5071 17.2207L14.3228 17.1795C14.2637 17.1773 14.2051 17.1903 14.1524 17.2172C14.0998 17.2441 14.0549 17.2841 14.022 17.3333C13.9892 17.3824 13.9695 17.4392 13.9647 17.4981C13.96 17.5571 13.9705 17.6162 13.9951 17.67L14.4856 18.747C14.4383 18.8332 14.3911 18.9202 14.3453 19.0095L13.1783 19.1985C13.1199 19.2079 13.0649 19.2321 13.0185 19.2687C12.972 19.3054 12.9358 19.3534 12.9131 19.4081C12.8905 19.4627 12.8823 19.5223 12.8892 19.581C12.8961 19.6398 12.9179 19.6958 12.9526 19.7437L13.6426 20.703C13.6126 20.7975 13.5841 20.8927 13.5563 20.988L12.4493 21.4027C12.394 21.4234 12.3449 21.4579 12.3066 21.5029C12.2684 21.5479 12.2422 21.6019 12.2307 21.6599C12.2193 21.7178 12.2228 21.7777 12.2409 21.8339C12.2591 21.8901 12.2913 21.9408 12.3346 21.981L13.2008 22.7887C13.1896 22.8862 13.1798 22.9837 13.1716 23.082L12.1643 23.706C12.1141 23.737 12.0726 23.7804 12.0439 23.832C12.0151 23.8836 12 23.9417 12 24.0007C12 24.0598 12.0151 24.1179 12.0439 24.1695C12.0726 24.2211 12.1141 24.2644 12.1643 24.2955L13.1716 24.9187C13.1798 25.017 13.1896 25.1152 13.2008 25.2127L12.3346 26.0205C12.2913 26.0607 12.2591 26.1114 12.2409 26.1676C12.2228 26.2238 12.2193 26.2837 12.2307 26.3416C12.2422 26.3995 12.2684 26.4536 12.3066 26.4986C12.3449 26.5436 12.394 26.5781 12.4493 26.5987L13.5563 27.0127C13.5841 27.1087 13.6133 27.204 13.6433 27.2977L12.9526 28.2577C12.9181 28.3057 12.8964 28.3616 12.8896 28.4203C12.8828 28.4789 12.8911 28.5384 12.9137 28.5929C12.9363 28.6475 12.9725 28.6953 13.0188 28.732C13.0651 28.7686 13.12 28.7928 13.1783 28.8022L14.3453 28.992C14.3911 29.0805 14.4376 29.1682 14.4863 29.2545L13.9951 30.3307C13.9705 30.3845 13.96 30.4437 13.9647 30.5026C13.9695 30.5616 13.9892 30.6183 14.022 30.6675C14.0549 30.7166 14.0998 30.7566 14.1524 30.7835C14.2051 30.8104 14.2637 30.8234 14.3228 30.8212L15.5071 30.78C15.5686 30.8572 15.6308 30.9322 15.6946 31.0072L15.4223 32.1615C15.4084 32.2191 15.4095 32.2793 15.4256 32.3363C15.4416 32.3934 15.4721 32.4453 15.5141 32.4871C15.5561 32.529 15.6081 32.5593 15.6652 32.5751C15.7223 32.591 15.7825 32.5919 15.8401 32.5777L16.9936 32.3062C17.0686 32.37 17.1443 32.4315 17.2208 32.493L17.1796 33.678C17.1773 33.7371 17.1903 33.7958 17.2172 33.8484C17.2441 33.9011 17.2841 33.946 17.3333 33.9788C17.3825 34.0116 17.4393 34.0312 17.4983 34.0358C17.5572 34.0404 17.6164 34.0298 17.6701 34.005L18.7463 33.5145C18.8326 33.5625 18.9203 33.6097 19.0088 33.6555L19.1986 34.8217C19.2077 34.8803 19.2317 34.9356 19.2683 34.9822C19.3049 35.0289 19.3529 35.0653 19.4076 35.0881C19.4624 35.1108 19.5221 35.1191 19.5809 35.1121C19.6398 35.1052 19.6959 35.0832 19.7438 35.0482L20.7031 34.3567C20.7976 34.3867 20.8928 34.4167 20.9881 34.4437L21.4021 35.5507C21.4224 35.6064 21.4567 35.6558 21.5017 35.6943C21.5467 35.7329 21.6009 35.7591 21.659 35.7707C21.717 35.7822 21.7771 35.7786 21.8334 35.7602C21.8897 35.7417 21.9403 35.7091 21.9803 35.6655L22.7888 34.7992C22.8863 34.8105 22.9838 34.8202 23.0821 34.8292L23.7061 35.8365C23.7373 35.8866 23.7807 35.9279 23.8323 35.9565C23.8838 35.9851 23.9418 36.0002 24.0008 36.0002C24.0598 36.0002 24.1178 35.9851 24.1694 35.9565C24.221 35.9279 24.2644 35.8866 24.2956 35.8365L24.9188 34.8285C25.0171 34.8202 25.1153 34.8105 25.2128 34.7992L26.0206 35.6655C26.0606 35.709 26.1112 35.7414 26.1674 35.7597C26.2236 35.778 26.2835 35.7816 26.3415 35.7701C26.3995 35.7586 26.4535 35.7323 26.4985 35.6939C26.5434 35.6555 26.5777 35.6062 26.5981 35.5507L27.0128 34.4437C27.1081 34.4167 27.2033 34.3867 27.2978 34.3567L28.2578 35.0482C28.3059 35.0825 28.3618 35.104 28.4205 35.1107C28.4791 35.1173 28.5385 35.1089 28.593 35.0863C28.6475 35.0636 28.6953 35.0274 28.732 34.9811C28.7686 34.9348 28.7928 34.88 28.8023 34.8217L28.9928 33.6547C29.0806 33.6097 29.1676 33.5617 29.2546 33.5145L30.3308 34.005C30.3846 34.0298 30.4438 34.0404 30.5028 34.0358C30.5619 34.0312 30.6187 34.0115 30.668 33.9786C30.7172 33.9457 30.7571 33.9007 30.784 33.848C30.8109 33.7952 30.8237 33.7364 30.8213 33.6772L30.7801 32.4922C30.8566 32.4322 30.9323 32.37 31.0073 32.3062L32.1608 32.5777C32.2183 32.5917 32.2785 32.5907 32.3354 32.5748C32.3924 32.5588 32.4443 32.5285 32.4862 32.4867C32.5281 32.4449 32.5585 32.393 32.5746 32.3361C32.5906 32.2791 32.5917 32.219 32.5778 32.1615L32.3063 31.0072C32.3693 30.9322 32.4316 30.8572 32.4931 30.78L33.6781 30.8212C33.7373 30.8237 33.7961 30.8109 33.8488 30.784C33.9016 30.7572 33.9466 30.7172 33.9795 30.6679C34.0123 30.6186 34.0319 30.5617 34.0364 30.5027C34.0409 30.4436 34.0301 30.3844 34.0051 30.3307L33.5146 29.2545C33.5626 29.1682 33.6091 29.0805 33.6548 28.992L34.8218 28.8022C34.8803 28.7932 34.9355 28.7692 34.9821 28.7326C35.0287 28.6961 35.0651 28.6481 35.0877 28.5934C35.1104 28.5387 35.1186 28.4791 35.1116 28.4203C35.1046 28.3615 35.0825 28.3055 35.0476 28.2577L34.3576 27.2977C34.3874 27.2031 34.4162 27.1081 34.4438 27.0127L35.5508 26.5987C35.6065 26.5784 35.6559 26.5441 35.6944 26.4991C35.7329 26.4541 35.7592 26.4 35.7708 26.3419C35.7823 26.2838 35.7787 26.2237 35.7603 26.1674C35.7418 26.1111 35.7092 26.0605 35.6656 26.0205L34.7993 25.2127C34.8098 25.1152 34.8196 25.017 34.8286 24.9187L35.8358 24.2955C35.8861 24.2644 35.9275 24.2211 35.9563 24.1695C35.9851 24.1179 36.0002 24.0598 36.0002 24.0007C36.0002 23.9417 35.9851 23.8836 35.9563 23.832C35.9275 23.7804 35.8861 23.737 35.8358 23.706ZM29.0926 32.064C28.9119 32.0201 28.7554 31.9073 28.6565 31.7498C28.5576 31.5923 28.5241 31.4024 28.5631 31.2205C28.6021 31.0387 28.7105 30.8792 28.8653 30.776C29.0201 30.6729 29.209 30.6342 29.3918 30.6682C29.5733 30.7116 29.7305 30.8242 29.83 30.9821C29.9294 31.1399 29.9631 31.3304 29.9239 31.5127C29.8847 31.6951 29.7757 31.8549 29.6202 31.9579C29.4647 32.0609 29.2758 32.099 29.0926 32.064ZM28.7498 29.7487C28.6664 29.7309 28.5803 29.7297 28.4964 29.7451C28.4125 29.7606 28.3325 29.7924 28.2609 29.8388C28.1893 29.8852 28.1275 29.9452 28.0791 30.0155C28.0307 30.0857 27.9966 30.1648 27.9788 30.2482L27.6211 31.9177C26.4837 32.4336 25.249 32.6995 24.0001 32.6977C22.6801 32.6977 21.4276 32.4052 20.3033 31.8825L19.9456 30.2137C19.9279 30.1302 19.8938 30.0511 19.8455 29.9807C19.7971 29.9104 19.7354 29.8503 19.6638 29.8038C19.5922 29.7573 19.5121 29.7255 19.4282 29.71C19.3442 29.6945 19.2581 29.6957 19.1746 29.7135L17.7008 30.03C17.427 29.7482 17.1724 29.4482 16.9388 29.1322H24.1096C24.1906 29.1322 24.2446 29.1172 24.2446 29.0437V26.5072C24.2446 26.433 24.1906 26.4187 24.1096 26.4187H22.0126V24.81H24.2806C24.4876 24.81 25.3876 24.8692 25.6756 26.0197C25.7656 26.373 25.9636 27.5242 26.0986 27.8925C26.2336 28.3057 26.7826 29.1315 27.3676 29.1315H30.9406C30.9841 29.1311 31.0275 29.1268 31.0703 29.1187C30.8228 29.4555 30.5506 29.7742 30.2581 30.0712L28.7506 29.748L28.7498 29.7487ZM18.8326 32.0287C18.6497 32.0628 18.4608 32.0241 18.306 31.9209C18.1513 31.8178 18.0428 31.6583 18.0039 31.4765C17.9649 31.2946 17.9984 31.1047 18.0973 30.9472C18.1962 30.7896 18.3526 30.6769 18.5333 30.633C18.625 30.6134 18.7197 30.612 18.8119 30.629C18.9041 30.646 18.9921 30.681 19.0708 30.732C19.1495 30.7829 19.2174 30.8489 19.2706 30.9261C19.3238 31.0034 19.3612 31.0903 19.3808 31.182C19.4004 31.2737 19.4018 31.3683 19.3848 31.4606C19.3678 31.5528 19.3328 31.6407 19.2819 31.7194C19.2309 31.7981 19.1649 31.866 19.0877 31.9192C19.0105 31.9724 18.9235 32.0099 18.8318 32.0295L18.8326 32.0287ZM16.1123 20.9985C16.1503 21.084 16.1711 21.1762 16.1734 21.2698C16.1757 21.3633 16.1596 21.4564 16.126 21.5438C16.0924 21.6311 16.0418 21.711 15.9773 21.7788C15.9128 21.8466 15.8356 21.901 15.7501 21.939C15.6645 21.977 15.5724 21.9977 15.4788 22.0001C15.3852 22.0024 15.2921 21.9863 15.2048 21.9527C15.1175 21.919 15.0376 21.8685 14.9698 21.804C14.902 21.7395 14.8476 21.6623 14.8096 21.5767C14.7329 21.404 14.728 21.2078 14.7959 21.0315C14.8639 20.8551 14.9991 20.7129 15.1718 20.6362C15.3446 20.5596 15.5407 20.5546 15.7171 20.6226C15.8935 20.6905 16.0357 20.8257 16.1123 20.9985ZM15.2761 22.9807L16.8113 22.2982C16.9689 22.228 17.0921 22.0982 17.154 21.9371C17.2159 21.7761 17.2113 21.5971 17.1413 21.4395L16.8256 20.7247H18.0691V26.3302H15.5603C15.2506 25.2425 15.1546 24.1052 15.2761 22.9807ZM22.0133 22.4362V20.784H24.9743C25.1273 20.784 26.0543 20.961 26.0543 21.654C26.0543 22.2292 25.3433 22.4362 24.7583 22.4362H22.0133ZM32.7751 23.9235C32.7751 24.1425 32.7668 24.3592 32.7503 24.5745H31.8503C31.7603 24.5745 31.7243 24.6345 31.7243 24.7222V25.1355C31.7243 26.109 31.1753 26.3205 30.6946 26.3745C30.2371 26.4255 29.7286 26.1825 29.6663 25.902C29.3963 24.3832 28.9463 24.0585 28.2353 23.4975C29.1173 22.938 30.0353 22.1115 30.0353 21.0052C30.0353 19.8105 29.2163 19.0582 28.6583 18.6892C27.8753 18.1732 27.0083 18.0697 26.7743 18.0697H17.4638C18.7503 16.6308 20.4759 15.6569 22.3726 15.2992L23.4698 16.4505C23.7181 16.71 24.1298 16.7205 24.3886 16.4715L25.6171 15.297C26.8686 15.532 28.054 16.0363 29.0912 16.775C30.1284 17.5137 30.9926 18.4691 31.6238 19.575L30.7831 21.474C30.7133 21.6317 30.7089 21.8106 30.7707 21.9715C30.8326 22.1325 30.9557 22.2624 31.1131 22.3327L32.7323 23.0512C32.7601 23.3385 32.7751 23.6287 32.7751 23.9235ZM23.4706 14.3197C23.5383 14.255 23.618 14.2043 23.7054 14.1704C23.7927 14.1366 23.8858 14.1203 23.9794 14.1224C24.073 14.1246 24.1653 14.1452 24.2509 14.183C24.3366 14.2209 24.414 14.2752 24.4786 14.343C24.5433 14.4109 24.594 14.4908 24.6278 14.5783C24.6616 14.6657 24.6779 14.759 24.6757 14.8527C24.6734 14.9465 24.6528 15.0388 24.6148 15.1246C24.5769 15.2103 24.5224 15.2878 24.4546 15.3525C24.3869 15.4171 24.3072 15.4678 24.2199 15.5016C24.1326 15.5354 24.0395 15.5516 23.946 15.5494C23.8524 15.5472 23.7602 15.5265 23.6747 15.4886C23.5891 15.4507 23.5118 15.3963 23.4473 15.3285C23.317 15.1915 23.2462 15.0084 23.2506 14.8193C23.2549 14.6302 23.334 14.4506 23.4706 14.3197ZM31.8128 21.033C31.8896 20.8602 32.0319 20.7251 32.2083 20.6572C32.3848 20.5893 32.581 20.5943 32.7537 20.6711C32.9265 20.7479 33.0616 20.8902 33.1295 21.0666C33.1974 21.2431 33.1924 21.4392 33.1156 21.612C33.0776 21.6975 33.0231 21.7747 32.9552 21.8392C32.8874 21.9037 32.8075 21.9542 32.7201 21.9878C32.6327 22.0214 32.5396 22.0375 32.446 22.0351C32.3524 22.0327 32.2602 22.0119 32.1747 21.9739C32.0892 21.9358 32.012 21.8814 31.9475 21.8135C31.883 21.7456 31.8325 21.6657 31.7989 21.5784C31.7653 21.491 31.7492 21.3979 31.7516 21.3043C31.754 21.2107 31.7748 21.1185 31.8128 21.033Z" fill="white"/>
</svg>
