<svg width="65" height="27" viewBox="0 0 65 27" fill="none" xmlns="http://www.w3.org/2000/svg">
<path d="M20.736 26.4999H17.496L13.716 11.7039H13.644L9.89999 26.4999H6.58801L0.612 7.88789H3.996L8.20801 23.1159H8.28L12.024 7.88789H15.372L19.26 23.1159H19.332L23.508 7.88789H26.676L20.736 26.4999ZM32.825 4.53989H29.765V0.795898H32.825V4.53989ZM29.765 7.88789H32.825V26.4999H29.765V7.88789ZM41.814 7.88789H45.522V10.5879H41.814V22.1439C41.814 22.5039 41.838 22.7919 41.886 23.0079C41.958 23.2239 42.078 23.3919 42.246 23.5119C42.414 23.6319 42.642 23.7159 42.93 23.7639C43.242 23.7879 43.638 23.7999 44.118 23.7999H45.522V26.4999H43.182C42.39 26.4999 41.706 26.4519 41.13 26.3559C40.578 26.2359 40.122 26.0319 39.762 25.7439C39.426 25.4559 39.174 25.0479 39.006 24.5199C38.838 23.9919 38.754 23.2959 38.754 22.4319V10.5879H35.586V7.88789H38.754V2.30789H41.814V7.88789ZM48.921 0.795898H51.981V10.6239H52.053C52.293 10.0479 52.629 9.5679 53.061 9.1839C53.493 8.7759 53.973 8.4519 54.501 8.2119C55.053 7.9479 55.617 7.75589 56.193 7.63589C56.793 7.51589 57.369 7.45589 57.921 7.45589C59.145 7.45589 60.165 7.6239 60.981 7.9599C61.797 8.2959 62.457 8.76389 62.961 9.36389C63.465 9.96389 63.813 10.6839 64.005 11.5239C64.221 12.3399 64.329 13.2519 64.329 14.2599V26.4999H61.269V13.8999C61.269 12.7479 60.933 11.8359 60.261 11.1639C59.589 10.4919 58.665 10.1559 57.489 10.1559C56.553 10.1559 55.737 10.2999 55.041 10.5879C54.369 10.8759 53.805 11.2839 53.349 11.8119C52.893 12.3399 52.545 12.9639 52.305 13.6839C52.089 14.3799 51.981 15.1479 51.981 15.9879V26.4999H48.921V0.795898Z" fill="white"/>
</svg>
